<svg width="100" height="100" viewBox="0 0 100 100" fill="none" xmlns="http://www.w3.org/2000/svg">
  <!-- Background circle -->
  <circle cx="50" cy="50" r="45" fill="url(#gradient1)" />
  
  <!-- Building/Hostel icon -->
  <rect x="30" y="35" width="40" height="35" fill="white" opacity="0.9" rx="2" />
  
  <!-- Windows -->
  <rect x="35" y="40" width="6" height="6" fill="url(#gradient2)" rx="1" />
  <rect x="47" y="40" width="6" height="6" fill="url(#gradient2)" rx="1" />
  <rect x="59" y="40" width="6" height="6" fill="url(#gradient2)" rx="1" />
  
  <rect x="35" y="50" width="6" height="6" fill="url(#gradient2)" rx="1" />
  <rect x="47" y="50" width="6" height="6" fill="url(#gradient2)" rx="1" />
  <rect x="59" y="50" width="6" height="6" fill="url(#gradient2)" rx="1" />
  
  <!-- Door -->
  <rect x="44" y="60" width="12" height="10" fill="url(#gradient2)" rx="1" />
  
  <!-- Sync arrows -->
  <path
    d="M 15 50 L 25 50 L 22 46 M 25 50 L 22 54"
    stroke="white"
    stroke-width="2.5"
    stroke-linecap="round"
    stroke-linejoin="round"
  />
  <path
    d="M 85 50 L 75 50 L 78 46 M 75 50 L 78 54"
    stroke="white"
    stroke-width="2.5"
    stroke-linecap="round"
    stroke-linejoin="round"
  />
  
  <!-- Gradients -->
  <defs>
    <linearGradient id="gradient1" x1="0%" y1="0%" x2="100%" y2="100%">
      <stop offset="0%" stop-color="#3b82f6" />
      <stop offset="100%" stop-color="#1d4ed8" />
    </linearGradient>
    <linearGradient id="gradient2" x1="0%" y1="0%" x2="100%" y2="100%">
      <stop offset="0%" stop-color="#0ea5e9" />
      <stop offset="100%" stop-color="#06b6d4" />
    </linearGradient>
  </defs>
</svg>
