<svg xmlns="http://www.w3.org/2000/svg" viewBox="0 0 200 200" role="img" aria-labelledby="title desc"><title id="title">Hostel Sync Logo</title><desc id="desc">House with bunk bed encircled by blue and green arrows</desc><defs><linearGradient id="blue" x1="0%" y1="0%" x2="100%" y2="100%"><stop offset="0%" stop-color="#1d4ed8"/><stop offset="100%" stop-color="#2563eb"/></linearGradient><linearGradient id="green" x1="0%" y1="0%" x2="100%" y2="100%"><stop offset="0%" stop-color="#16a34a"/><stop offset="100%" stop-color="#22c55e"/></linearGradient></defs><circle cx="100" cy="100" r="94" fill="#eef2ff"/><path d="M108 16a84 84 0 1 0 73 44" fill="none" stroke="url(#blue)" stroke-width="16" stroke-linecap="round"/><path d="M92 184a84 84 0 1 0 71-126" fill="none" stroke="url(#green)" stroke-width="16" stroke-linecap="round"/><path d="M60 108V78l40-30 40 30v30" fill="none" stroke="#0f172a" stroke-width="8" stroke-linejoin="round"/><path d="M72 116h56v36H72z" fill="none" stroke="#0f172a" stroke-width="8" stroke-linejoin="round"/><path d="M72 134h56" stroke="#0f172a" stroke-width="8" stroke-linecap="round"/><path d="M88 128v20M112 128v20" stroke="#0f172a" stroke-width="8" stroke-linecap="round"/><circle cx="100" cy="86" r="4" fill="#22c55e"/><path d="M118 60h14v-8h-14z" fill="#0f172a"/><path d="M140 60h8v-8h-8z" fill="#22c55e"/><path d="M150 50 170 36" stroke="#0f172a" stroke-width="6" stroke-linecap="round"/><path d="m168 40 6-10" stroke="#0f172a" stroke-width="6" stroke-linecap="round"/></svg>