<svg xmlns="http://www.w3.org/2000/svg" viewBox="0 0 200 200" role="img" aria-labelledby="title desc"><title id="title">Hostel Sync Icon</title><desc id="desc">House with bunk bed inside circular arrows</desc><defs><linearGradient id="blue" x1="0%" y1="0%" x2="100%" y2="100%"><stop offset="0%" stop-color="#1d4ed8"/><stop offset="100%" stop-color="#2563eb"/></linearGradient><linearGradient id="green" x1="0%" y1="0%" x2="100%" y2="100%"><stop offset="0%" stop-color="#16a34a"/><stop offset="100%" stop-color="#22c55e"/></linearGradient></defs><rect width="200" height="200" rx="28" fill="#eef2ff"/><path d="M108 24a76 76 0 1 0 66 40" fill="none" stroke="url(#blue)" stroke-width="14" stroke-linecap="round"/><path d="M92 176a76 76 0 1 0 64-114" fill="none" stroke="url(#green)" stroke-width="14" stroke-linecap="round"/><path d="M64 108V82l36-26 36 26v26" fill="none" stroke="#0f172a" stroke-width="8" stroke-linejoin="round"/><path d="M74 116h52v32H74z" fill="none" stroke="#0f172a" stroke-width="8" stroke-linejoin="round"/><path d="M74 132h52" stroke="#0f172a" stroke-width="8" stroke-linecap="round"/><path d="M90 126v18M110 126v18" stroke="#0f172a" stroke-width="8" stroke-linecap="round"/><circle cx="100" cy="90" r="4" fill="#22c55e"/><path d="M120 62h12v-8h-12z" fill="#0f172a"/><path d="M138 62h8v-8h-8z" fill="#22c55e"/><path d="M148 52 164 40" stroke="#0f172a" stroke-width="6" stroke-linecap="round"/><path d="m162 44 6-9" stroke="#0f172a" stroke-width="6" stroke-linecap="round"/></svg>